<svg xmlns="http://www.w3.org/2000/svg" viewBox="0 0 106.38 108.18"><defs><style>.cls-1{fill:#556594;}.cls-2{fill:#8b9bc9;}.cls-3{fill:#fff;}</style></defs><g id="レイヤー_2" data-name="レイヤー 2"><g id="レイヤー_1-2" data-name="レイヤー 1"><circle class="cls-1" cx="54.54" cy="56.34" r="51.84"/><circle class="cls-2" cx="51.84" cy="51.84" r="51.84"/><path class="cls-3" d="M70.52,62.31,69,70H62.65c.22-1.13.43-2.23.64-3.32,1.63-8.34,3.24-16.68,4.88-25,.19-1,0-.81,1-.81q5.71,0,11.44,0a13.13,13.13,0,0,1,5.22.91,7,7,0,0,1,4.54,6.15A13.07,13.07,0,0,1,83.7,60.78a12.16,12.16,0,0,1-5.53,1.43c-2.32.09-4.63.08-7,.1Zm.89-4.59c2.49-.09,4.9.19,7.27-.4a5.5,5.5,0,0,0,3.65-2.55,10.5,10.5,0,0,0,1.41-6,2.92,2.92,0,0,0-2.24-2.8,7.21,7.21,0,0,0-1.77-.35c-1.85-.07-3.7-.07-5.55-.11-.32,0-.42.12-.48.42-.51,2.72-1,5.44-1.58,8.16Z"/><path class="cls-3" d="M20.82,62.31,19.32,70H13c.12-.68.24-1.34.37-2q2.6-13.34,5.19-26.69c.07-.37.2-.49.58-.48h12a13.76,13.76,0,0,1,4.27.62,7.24,7.24,0,0,1,5.36,7,13,13,0,0,1-6.07,11.92,11.83,11.83,0,0,1-6.18,1.8c-2.31.1-4.62.08-6.94.1Zm.91-4.59c2.52-.09,5,.2,7.4-.43a5.46,5.46,0,0,0,3.47-2.47A10.26,10.26,0,0,0,34,48.63,2.8,2.8,0,0,0,31.92,46a8.1,8.1,0,0,0-2-.4c-1.78-.08-3.56-.06-5.34-.11-.4,0-.53.12-.61.52-.57,3-1.18,6.07-1.77,9.1C22.06,55.94,21.9,56.79,21.73,57.72Z"/><path class="cls-3" d="M40.05,62.29c1.9-9.74,3.78-19.43,5.67-29.14H52c-.5,2.58-1,5.13-1.5,7.72h.67c2.37,0,4.74,0,7.11.12a11.15,11.15,0,0,1,2.67.46c2.93.81,4.3,2.82,3.89,5.85-.32,2.26-.79,4.51-1.22,6.76-.49,2.61-1,5.21-1.51,7.81,0,.13-.08.27-.12.42H55.65c.16-.81.3-1.61.45-2.4.69-3.52,1.39-7,2-10.57a8.57,8.57,0,0,0,.09-2A1.53,1.53,0,0,0,57,45.89a11.75,11.75,0,0,0-2.21-.3c-1.55,0-3.1,0-4.65,0-.37,0-.51.09-.59.48-1,5.25-2,10.5-3.05,15.76-.07.39-.2.52-.61.51-1.76,0-3.53,0-5.29,0Z"/></g></g></svg>