<svg xmlns="http://www.w3.org/2000/svg" viewBox="0 0 90 122.07"><defs><style>.cls-1{fill:#c45619;}.cls-2{fill:#f26a23;}.cls-3{fill:#f07a38;}.cls-4{fill:#fff;}</style></defs><g id="レイヤー_2" data-name="レイヤー 2"><g id="レイヤー_1-2" data-name="レイヤー 1"><path class="cls-1" d="M90,29.7v86.37a6,6,0,0,1-6,6H6a6,6,0,0,1-6-6V9.6a6,6,0,0,1,6-6H58.9Z"/><path class="cls-2" d="M90,26.1v86.37a6,6,0,0,1-6,6H6a6,6,0,0,1-6-6V6A6,6,0,0,1,6,0H58.9Z"/><polygon class="cls-1" points="90 45.9 61.43 24.99 90 26.1 90 45.9"/><path class="cls-3" d="M90,26.1H64.9a6,6,0,0,1-6-6V0Z"/><path class="cls-4" d="M28.32,41.42h17c10.56,0,19.3,3.82,19.3,15.74,0,11.47-8.81,16.53-19,16.53H39.92v16H28.32ZM45,64.55c5.64,0,8.36-2.66,8.36-7.39s-3.11-6.54-8.68-6.54H39.92V64.55Z"/></g></g></svg>