<svg xmlns="http://www.w3.org/2000/svg" viewBox="0 0 90 122.07"><defs><style>.cls-1{fill:#367fa8;}.cls-2{fill:#41a2dc;}.cls-3{fill:#51abdb;}.cls-4{fill:#fff;}</style></defs><g id="レイヤー_2" data-name="レイヤー 2"><g id="レイヤー_1-2" data-name="レイヤー 1"><path class="cls-1" d="M90,29.7v86.37a6,6,0,0,1-6,6H6a6,6,0,0,1-6-6V9.6a6,6,0,0,1,6-6H58.9Z"/><path class="cls-2" d="M90,26.1v86.37a6,6,0,0,1-6,6H6a6,6,0,0,1-6-6V6A6,6,0,0,1,6,0H58.9Z"/><polygon class="cls-1" points="90 45.9 61.43 24.99 90 26.1 90 45.9"/><path class="cls-3" d="M90,26.1H64.9a6,6,0,0,1-6-6V0Z"/><path class="cls-4" d="M15.69,41.42H27.48l3,22c.65,5,1.3,10.11,1.95,15.29h.26c.9-5.18,1.88-10.3,2.85-15.29l4.92-22h9.78l5,22c1,4.92,1.82,10.11,2.79,15.29h.32c.59-5.18,1.23-10.3,1.82-15.29l3.17-22H74.32L66,89.69H51.39l-4.34-21c-.78-3.7-1.43-7.58-1.88-11.21h-.26C44.26,61.12,43.68,65,43,68.7l-4.21,21H24.43Z"/></g></g></svg>