<svg xmlns="http://www.w3.org/2000/svg" viewBox="0 0 87.9 119.22"><defs><style>.cls-1{fill:#953d69;}.cls-2{fill:#e73da7;}.cls-3{fill:#953d5b;}.cls-4{fill:#e767b7;}</style></defs><g id="レイヤー_2" data-name="レイヤー 2"><g id="レイヤー_1-2" data-name="レイヤー 1"><path class="cls-1" d="M87.9,29v84.36A5.87,5.87,0,0,1,82,119.22H5.86A5.86,5.86,0,0,1,0,113.36V9.37A5.85,5.85,0,0,1,5.86,3.52H57.52Z"/><path class="cls-2" d="M87.9,25.49v84.35A5.86,5.86,0,0,1,82,115.7H5.86A5.86,5.86,0,0,1,0,109.84V5.86A5.86,5.86,0,0,1,5.86,0H57.52Z"/><polygon class="cls-3" points="87.9 44.83 59.99 24.4 87.9 25.49 87.9 44.83"/><path class="cls-4" d="M87.9,25.49H63.38a5.86,5.86,0,0,1-5.86-5.86V0Z"/><path class="cls-3" d="M25.37,60.89,17.23,45.63h8.39l2.53,5.65c.72,1.47,1.39,3.12,2.28,5.14h.17c.72-2,1.39-3.67,2-5.14l2.28-5.65h8l-8.1,15.6,8.65,15.82H35l-2.91-6.12c-.76-1.64-1.48-3.29-2.32-5.23h-.17c-.72,1.94-1.44,3.59-2.15,5.23l-2.7,6.12h-8Z"/><path class="cls-3" d="M45.74,65c0-7.85,4.94-12.57,9.91-12.57A7.54,7.54,0,0,1,61.43,55l-.25-3.59v-8h7.5v33.7H62.57L62,74.73h-.17a9.34,9.34,0,0,1-6.28,2.91C49.58,77.64,45.74,72.87,45.74,65Zm15.44,4.43V60a5.4,5.4,0,0,0-3.76-1.44c-2.06,0-4,1.94-4,6.37,0,4.6,1.52,6.54,4.09,6.54A4,4,0,0,0,61.18,69.46Z"/></g></g></svg>