<svg xmlns="http://www.w3.org/2000/svg" viewBox="0 0 90 122.07"><defs><style>.cls-1{fill:#b36005;}.cls-2{fill:#f8961c;}.cls-3{fill:#fcb43f;}</style></defs><g id="レイヤー_2" data-name="レイヤー 2"><g id="レイヤー_1-2" data-name="レイヤー 1"><path class="cls-1" d="M90,29.7v86.37a6,6,0,0,1-6,6H6a6,6,0,0,1-6-6V9.6a6,6,0,0,1,6-6H58.9Z"/><path class="cls-2" d="M90,26.1v86.37a6,6,0,0,1-6,6H6a6,6,0,0,1-6-6V6A6,6,0,0,1,6,0H58.9Z"/><polygon class="cls-1" points="90 45.9 61.43 24.99 90 26.1 90 45.9"/><path class="cls-3" d="M90,26.1H64.9a6,6,0,0,1-6-6V0Z"/><path class="cls-1" d="M33.45,46.72h9.24l10,32.17H44.55l-1.86-7.38h-9.5l-1.86,7.38H23.47Zm1.21,18.83h6.56l-.69-2.72c-.86-3.2-1.68-7-2.55-10.32h-.17c-.78,3.36-1.64,7.12-2.46,10.32Z"/><path class="cls-1" d="M55,46.94C55,44.56,56.68,43,59.27,43s4.28,1.55,4.28,3.93-1.73,4-4.28,4S55,49.35,55,46.94Zm.43,7.38h7.69V78.89H55.43Z"/></g></g></svg>