<svg xmlns="http://www.w3.org/2000/svg" viewBox="0 0 90 122.07"><defs><style>.cls-1{fill:#488635;}.cls-2{fill:#6abd56;}.cls-3{fill:#75c563;}</style></defs><g id="レイヤー_2" data-name="レイヤー 2"><g id="レイヤー_1-2" data-name="レイヤー 1"><path class="cls-1" d="M90,29.7v86.37a6,6,0,0,1-6,6H6a6,6,0,0,1-6-6V9.6a6,6,0,0,1,6-6H58.9Z"/><path class="cls-2" d="M90,26.1v86.37a6,6,0,0,1-6,6H6a6,6,0,0,1-6-6V6A6,6,0,0,1,6,0H58.9Z"/><polygon class="cls-1" points="90 45.9 61.43 24.99 90 26.1 90 45.9"/><path class="cls-3" d="M90,26.1H64.9a6,6,0,0,1-6-6V0Z"/><path class="cls-1" d="M13.6,46.72h9.24c9.81,0,16.28,4.75,16.28,15.93S32.65,78.89,23.28,78.89H13.6Zm8.77,26c5.18,0,8.85-2.37,8.85-10s-3.67-9.76-8.85-9.76h-1V72.67Z"/><path class="cls-1" d="M42.58,54.32h7.6l2.2,11c.39,2.46.65,4.88,1,7.38h.22c.43-2.5.82-5,1.42-7.38l2.55-11h6.61l2.63,11c.56,2.46,1,4.88,1.51,7.38h.22c.39-2.5.64-4.92,1.08-7.38l2.11-11H78.9L73.11,78.89h-9l-2.07-9.37c-.48-2.29-.87-4.53-1.3-7.21h-.21c-.39,2.68-.74,4.92-1.17,7.21l-2,9.37H48.63Z"/></g></g></svg>