<svg xmlns="http://www.w3.org/2000/svg" viewBox="0 0 87.9 119.22"><defs><style>.cls-1{fill:#1b874a;}.cls-2{fill:#27a55b;}.cls-3{fill:#3fae6e;}.cls-4{fill:#fff;}</style></defs><g id="レイヤー_2" data-name="レイヤー 2"><g id="レイヤー_1-2" data-name="レイヤー 1"><path class="cls-1" d="M87.9,29v84.36A5.87,5.87,0,0,1,82,119.22H5.86A5.86,5.86,0,0,1,0,113.36V9.37A5.85,5.85,0,0,1,5.86,3.52H57.52Z"/><path class="cls-2" d="M87.9,25.49v84.35A5.86,5.86,0,0,1,82,115.7H5.86A5.86,5.86,0,0,1,0,109.84V5.86A5.86,5.86,0,0,1,5.86,0H57.52Z"/><polygon class="cls-1" points="87.9 44.83 59.99 24.4 87.9 25.49 87.9 44.83"/><path class="cls-3" d="M87.9,25.49H63.38a5.86,5.86,0,0,1-5.86-5.86V0Z"/><path class="cls-4" d="M36.89,63.36,24.68,40.46H37.27l3.8,8.48c1.07,2.21,2.09,4.68,3.41,7.72h.26c1.07-3,2.09-5.51,3-7.72l3.42-8.48h12L51,63.87,64,87.59H51.38L47,78.42c-1.14-2.47-2.22-4.94-3.48-7.85h-.26c-1.07,2.91-2.15,5.38-3.22,7.85L36,87.59H24Z"/></g></g></svg>