<svg xmlns="http://www.w3.org/2000/svg" viewBox="0 0 87.9 119.22"><defs><style>.cls-1{fill:#1a6f97;}.cls-2{fill:#329fd9;}.cls-3{fill:#44a7e2;}</style></defs><g id="レイヤー_2" data-name="レイヤー 2"><g id="レイヤー_1-2" data-name="レイヤー 1"><path class="cls-1" d="M87.9,29v84.36A5.87,5.87,0,0,1,82,119.22H5.86A5.86,5.86,0,0,1,0,113.36V9.37A5.85,5.85,0,0,1,5.86,3.52H57.52Z"/><path class="cls-2" d="M87.9,25.49v84.35A5.86,5.86,0,0,1,82,115.7H5.86A5.86,5.86,0,0,1,0,109.84V5.86A5.86,5.86,0,0,1,5.86,0H57.52Z"/><polygon class="cls-1" points="87.9 44.83 59.99 24.4 87.9 25.49 87.9 44.83"/><path class="cls-3" d="M87.9,25.49H63.38a5.86,5.86,0,0,1-5.86-5.86V0Z"/><path class="cls-1" d="M22.33,45.63H33.38C40.26,45.63,46,48.11,46,55.87c0,7.47-5.74,10.76-12.4,10.76H29.88V77.05H22.33Zm10.84,15c3.67,0,5.44-1.73,5.44-4.81s-2-4.25-5.65-4.25H29.88v9.06Z"/><path class="cls-1" d="M48.65,74.26,52,69.58c2.2,1.65,4.18,2.53,6.08,2.53s2.82-.71,2.82-1.9c0-1.43-2.32-2.1-4.76-3.07C53.25,66,50,64.06,50,60.05c0-4.51,3.67-7.59,9.28-7.59a13.71,13.71,0,0,1,8.56,3.08L64.51,60a9.11,9.11,0,0,0-5-2C57.8,58,57,58.57,57,59.71c0,1.44,2.07,2,4.56,2.87,3,1.14,6.32,2.87,6.32,7.21s-3.46,7.85-10,7.85A15.5,15.5,0,0,1,48.65,74.26Z"/></g></g></svg>