<svg xmlns="http://www.w3.org/2000/svg" viewBox="0 0 87.9 119.22"><defs><style>.cls-1{fill:#3a38a5;}.cls-2{fill:#5248b7;}.cls-3{fill:#5258c7;}.cls-4{fill:#fff;}</style></defs><g id="レイヤー_2" data-name="レイヤー 2"><g id="レイヤー_1-2" data-name="レイヤー 1"><path class="cls-1" d="M87.9,29v84.36A5.87,5.87,0,0,1,82,119.22H5.86A5.86,5.86,0,0,1,0,113.36V9.37A5.85,5.85,0,0,1,5.86,3.52H57.52Z"/><path class="cls-2" d="M87.9,25.49v84.35A5.86,5.86,0,0,1,82,115.7H5.86A5.86,5.86,0,0,1,0,109.84V5.86A5.86,5.86,0,0,1,5.86,0H57.52Z"/><polygon class="cls-1" points="87.9 44.83 59.99 24.4 87.9 25.49 87.9 44.83"/><path class="cls-3" d="M87.9,25.49H63.38a5.86,5.86,0,0,1-5.86-5.86V0Z"/><path class="cls-4" d="M14.69,58.72l.12-1.3A29.31,29.31,0,0,1,38.1,31.09,29.27,29.27,0,0,1,72.28,52.46a28.44,28.44,0,0,1,.91,7.95A28.84,28.84,0,0,1,62.83,82.06a28,28,0,0,1-13.35,6.4c-1.38.26-2.79.34-4.19.5l-.48.05H43.1L42.73,89a26.15,26.15,0,0,1-4.58-.54A29.29,29.29,0,0,1,14.81,62.08l-.12-1.3ZM44,32.21A27.54,27.54,0,1,0,71.49,59.77,27.57,27.57,0,0,0,44,32.21ZM23.29,46.05l8.36-.2c.36,0,.42,0,.42.4s0,.78,0,1.17-.06.45-.44.45H28.94c-.2,0-.39.05-.4.3a1.17,1.17,0,0,0,.08.36q4.47,13.2,9,26.4c0,.09.07.17.11.29l.08-.19q2.68-8.13,5.38-16.27a.8.8,0,0,0,0-.46q-1.78-4.9-3.58-9.8c-.19-.51-.35-.62-.89-.63H36.31c-.36,0-.42-.06-.42-.41v-1.2c0-.38,0-.43.43-.41,1.19,0,2.38.11,3.57.1,3.48,0,7-.06,10.43-.1.37,0,.43,0,.44.41v1.17c0,.37-.08.44-.43.44H48.1c-.7,0-.81.17-.59.83l8.8,25.92.11.3c.06-.15.08-.23.11-.31q1.36-4.17,2.74-8.34a28.68,28.68,0,0,0,1.56-6.39,11.92,11.92,0,0,0-1.16-6.65c-.59-1.14-1.27-2.23-1.91-3.35A8,8,0,0,1,56.51,45a4,4,0,0,1,3.18-3.65c.38-.08.78-.11,1.17-.16a25.08,25.08,0,0,0-37.95,4.87Zm21.1,15.61L36.65,83.82a25.4,25.4,0,0,0,15.71-.36C49.7,76.19,47.05,69,44.39,61.66ZM21.07,49.39A25.11,25.11,0,0,0,33.15,82.44C29.11,71.4,25.09,60.41,21.07,49.39Zm42.5,26.08a24.72,24.72,0,0,0,4.49-8.59A25.15,25.15,0,0,0,69,57.2c-.28-3-2-8.43-2.82-9.19-.08,1.12-.12,2.29-.27,3.45A36.21,36.21,0,0,1,64.09,59q-3.44,9.79-6.9,19.58l-1.14,3.22A25.16,25.16,0,0,0,63.57,75.47Z"/></g></g></svg>